<svg xmlns="http://www.w3.org/2000/svg" viewBox="0 0 623.52 623.52"><defs><style>.cls-1,.cls-4,.cls-5{fill:#fff;}.cls-2,.cls-3{fill:none;}.cls-2,.cls-3,.cls-4,.cls-5{stroke:#fff;stroke-miterlimit:10;}.cls-2,.cls-4{stroke-width:8px;}.cls-3{stroke-width:7px;}.cls-5{stroke-width:10px;}.cls-6{fill:#fff83f;}.cls-7{fill:#468dff;}.cls-8{fill:#d54825;}</style></defs><title>BFM_logo_v1</title><g id="monkey"><polyline id="left_pedal" data-name="left pedal" class="cls-1" points="352.18 529.64 357.94 541.3 382 528.3 386.59 520.22 395.79 516.63 393.38 512.21 382.79 516.97 378.96 522.63 352.18 529.64 352.18 529.64"/><polygon id="right_pedal" data-name="right pedal" class="cls-1" points="409.13 502.88 420.79 498.88 446.98 488.07 448.88 498.88 422.12 508.54 416.29 504.54 409.13 506.88 409.13 504.54 409.13 502.88"/><path id="wheel" class="cls-1" d="M393.4,474.14c-6.08,2.56-9.41,8.59-7.38,13.41l33.57,79.93c2,4.82,8.66,6.67,14.74,4.11s9.41-8.59,7.38-13.41l-33.57-79.93C406.12,473.44,399.48,471.59,393.4,474.14Zm36.84,87.71c.65,1.54-.42,3.47-2.36,4.28s-4.06.23-4.71-1.31l-32.6-77.62c-.65-1.54.42-3.47,2.36-4.28s4.06-.23,4.71,1.31Z" transform="translate(-8.32 -8.32)"/><path id="Body_outline" data-name="Body outline" class="cls-2" d="M211.77,338.28s-5,26-46,25-94-32-97-86,51-79,71.5-79,75.5-5,169.5,42c0,0-24-31.5-24-56.5s5-33.5,39.5-34.5,45.5.5,46,34.5-25,57.5-25,57.5,26.5,1.5,38.5,17,105,5.5,113.5-7.5,25.5-53,0-89.5-62.5-12.2-62.5-12.2l-.5-7.93s-18.5,5.13-22.5,14.63-9-34.5,35-33.5,81.5,35,80.5,84-12.5,90-142,85c1.5,35.5,2,65,2,65s52-12.5,65.5,1.5,4.5,25.5,4.5,39.5-.5,41,4,46c-7.5,2.5-22,12-43,0,6-6.5,9-19,8.5-45s-38.5-4.5-38.5-4.5-32.5-8.5-46,9.5c-1,11.5-10.5,38-18,43,18.5,14,26,23.5,26,23.5s-1.5,17.5-38,29c-8-14.5-9-21.5-20.5-30s-13.5-16.5-7-27.5,24.5-35.5,31.5-62.5c-12-10.5-30-48-30.5-65.5s14.25-27.75-30.5-63c-36.5-29.5-166-51.5-166,30.5,9,74.5,94.5,57.5,94.5,57.5l-2.33,9.33Z" transform="translate(-8.32 -8.32)"/><path id="vest" class="cls-1" d="M280.44,275.95s21.42-18,14.42-42c13.25,8.25,18.41,12.32,18.41,12.32s-2,78,23.5,72,12.5-76,12.5-76,21.53,2.43,24.71,7c-6.21,9.7-4,33,10.46,41,2,29.5,2.83,67,2.83,67s-16,27.5-70,22.5c-28.5-36.5-27.5-64-29.5-81S280.44,275.95,280.44,275.95Z" transform="translate(-8.32 -8.32)"/><path id="neckline" class="cls-2" d="M346.27,241.28c-21,17.5-36.5-1-36.5-1" transform="translate(-8.32 -8.32)"/><path id="left_ear" data-name="left ear" class="cls-3" d="M297.28,220.48s-25-3.7-30-28.2,18.55-12.52,18.55-12.52" transform="translate(-8.32 -8.32)"/><path id="right_ear" data-name="right ear" class="cls-3" d="M370.73,173.92s14.71-19.3,16.54,8.7S364,215.92,364,215.92" transform="translate(-8.32 -8.32)"/><path id="hat" class="cls-2" d="M287.24,167.43s-15.46-21.65-30.46-27.15c20.5-6.5,17.93-11.53,30.46-18s14-8,29-15,22.5-8,36-4.5,36.19,8,35.1,23.5,8.4,30.5,17.9,43.5c-8.5,11.5-17.9,15-17.9,15" transform="translate(-8.32 -8.32)"/><path id="hat_line" data-name="hat line" class="cls-4" d="M264.11,140.28s69.75-31,141.17,29.5l-15.5,10.77s-3.71-22.08-19.36-9.18c-.64-9.76,3.52-27-39.39-22.24s-43.14,10-45.51,16C285.52,165.15,274.44,143.28,264.11,140.28Z" transform="translate(-8.32 -8.32)"/><path id="hat_line_upper" data-name="hat line upper" class="cls-2" d="M319.84,105.67s8.2,14.08,59.06,6.35" transform="translate(-8.32 -8.32)"/><line id="stem" class="cls-5" x1="381.46" y1="457.05" x2="364.46" y2="414.72"/><path id="Seat" class="cls-1" d="M387.27,393.33s-38-7.57-44.54,13.75l15.7,18.53h16.67l14.67-9.27Zm-18.33,26.45c-7,3-8.25-.83-12-3.92s16.33-9.75,22.5-5.75C383.27,413.78,375.94,416.78,368.94,419.78Z" transform="translate(-8.32 -8.32)"/><path id="fender" class="cls-3" d="M381.27,486.53A26.87,26.87,0,0,1,409.35,474c.75-2.5,3.07-17.09-19.58-8.67C368.49,473.28,381.27,486.53,381.27,486.53Z" transform="translate(-8.32 -8.32)"/><path id="left_sock" data-name="left sock" class="cls-2" d="M328.11,493l25,26s16.33-1.33,21.33-11c-10.79-16-28.92-27.48-28.92-27.48S337.6,489,328.11,493Z" transform="translate(-8.32 -8.32)"/><path id="left_boot" data-name="left boot" class="cls-2" d="M353.11,518.95s-31.33,3-29,27,15.33,31.58,24,26.79,3.33-17.45,0-19.79-6.59-13,4.7-14,33-5.17,37-16.08-15.33-14.92-15.33-14.92" transform="translate(-8.32 -8.32)"/><path id="left_stripe" data-name="left stripe" class="cls-2" d="M340.09,504.78s15.19.67,20.36-12" transform="translate(-8.32 -8.32)"/><path id="right_sock" data-name="right sock" class="cls-2" d="M430.43,448l-5.82,34.6s18.33-1.44,24.17-7.11c-1-6.17-3-25.87-3-25.87S440.09,450.14,430.43,448Z" transform="translate(-8.32 -8.32)"/><path id="right_boot" data-name="right boot" class="cls-2" d="M449.94,476.78s31.83,7.67,33-11.42,17-13.92,16,1.58-2.67,28.84-30.67,27.67-37,10.17-37,10.17-13.5-7.95-6.67-22.22" transform="translate(-8.32 -8.32)"/><path id="right_stripe" data-name="right stripe" class="cls-2" d="M427.52,465.26s14.43,2.67,19.84-1" transform="translate(-8.32 -8.32)"/><path id="patch" class="cls-1" d="M457.2,383.53c-7.58-25-16.92-14.5-19.88-10,0,0-4,2,0,20S464.77,408.53,457.2,383.53Zm-16.92-4c0-1.6,2.3-2.9,3.9-2.9a2.9,2.9,0,0,1,2.9,2.9c0,1.6-2.3,2.9-3.9,2.9A2.9,2.9,0,0,1,440.27,379.49Zm2,14.29s-3-7.83,7.8-9.17C460.11,383.38,445.44,409.95,442.31,393.78Z" transform="translate(-8.32 -8.32)"/><path class="cls-1" d="M320.07,631.83A311.76,311.76,0,0,1,99.63,99.63,311.76,311.76,0,1,1,540.52,540.52,309.72,309.72,0,0,1,320.07,631.83Zm0-607.52C157,24.32,24.32,157,24.32,320.07S157,615.83,320.07,615.83,615.83,483.16,615.83,320.07,483.16,24.32,320.07,24.32Z" transform="translate(-8.32 -8.32)"/></g><g id="balls"><path class="cls-6" d="M166.44,291.08l23.44-16.2,17.9,16.2,6.89-4.63c-1.25-17.46-13.92-31.18-29.39-31.18-13.73,0-25.27,10.82-28.56,25.46Z" transform="translate(-8.32 -8.32)"/><path class="cls-6" d="M205.77,307.17l-18-16.09-21,16.2-9.68-7.92c3.73,13.86,14.93,23.92,28.18,23.92,11.77,0,21.93-8,26.67-19.45Z" transform="translate(-8.32 -8.32)"/><path class="cls-7" d="M450.65,177.35a31.76,31.76,0,0,0-22.87,17.36C440.41,193.68,448.78,192.75,450.65,177.35Z" transform="translate(-8.32 -8.32)"/><path class="cls-7" d="M460.46,205.3c4.52,5.85,13.88,8.27,27.34,7.21A31.67,31.67,0,0,0,459.88,177C457.4,184.28,454.29,197.31,460.46,205.3Z" transform="translate(-8.32 -8.32)"/><path class="cls-7" d="M452.37,208.42c-4.76-6.27-18.18-5.62-27.48-4.07a31.67,31.67,0,0,0,21.46,34.32C454.2,224.29,456.35,213.67,452.37,208.42Z" transform="translate(-8.32 -8.32)"/><path class="cls-7" d="M464.75,223.81c-4.26,2.71-6.78,8.31-7.51,16.45a31.71,31.71,0,0,0,27.1-16.8C477.37,221.35,469.87,220.54,464.75,223.81Z" transform="translate(-8.32 -8.32)"/><path class="cls-8" d="M179.55,160.72a80.68,80.68,0,0,1-22-3c-.61-.17-1.18-.36-1.77-.54a28.28,28.28,0,0,0,21,9.64,27.91,27.91,0,0,0,19-7.62A90.25,90.25,0,0,1,179.55,160.72Z" transform="translate(-8.32 -8.32)"/><path class="cls-8" d="M160.69,131.06a90.57,90.57,0,0,0,46-.56,36.31,36.31,0,0,0-5.41-16.93,122.49,122.49,0,0,1-17.67,1.3A115.73,115.73,0,0,1,162.8,113c-3.14-.58-6.06-1.25-8.76-2a35.53,35.53,0,0,0-6.72,15.66A94.84,94.84,0,0,0,160.69,131.06Z" transform="translate(-8.32 -8.32)"/><path class="cls-8" d="M159,136.82A101.7,101.7,0,0,1,146.78,133s0,.07,0,.1a37,37,0,0,0,3.44,15.69A72.05,72.05,0,0,0,159.5,152c13.52,3.76,27.64,3.67,42.22-.22a36.32,36.32,0,0,0,4.89-15.21,99.26,99.26,0,0,1-24.29,3.05A96.88,96.88,0,0,1,159,136.82Z" transform="translate(-8.32 -8.32)"/><path class="cls-8" d="M196.95,108.06a28.13,28.13,0,0,0-20.17-8.78A27.74,27.74,0,0,0,158.85,106,112.3,112.3,0,0,0,196.95,108.06Z" transform="translate(-8.32 -8.32)"/></g></svg>